<?xml version="1.0" encoding="UTF-8"?>
<!DOCTYPE svg PUBLIC "-//W3C//DTD SVG 1.1//EN" "http://www.w3.org/Graphics/SVG/1.1/DTD/svg11.dtd">
<svg xmlns="http://www.w3.org/2000/svg" version="1.1" width="408px" height="612px" style="shape-rendering:geometricPrecision; text-rendering:geometricPrecision; image-rendering:optimizeQuality; fill-rule:evenodd; clip-rule:evenodd" xmlns:xlink="http://www.w3.org/1999/xlink">
<g><path style="opacity:1" fill="#95bedd" d="M 61.5,247.5 C 61.9919,232.491 63.6586,217.491 66.5,202.5C 74.3639,182.136 89.0305,169.97 110.5,166C 132.819,164.85 155.152,164.017 177.5,163.5C 213.84,163.392 250.173,163.892 286.5,165C 316.919,167.747 336.086,183.914 344,213.5C 345.622,271.815 345.955,330.148 345,388.5C 342.199,418.618 326.366,437.785 297.5,446C 236.537,447.648 175.537,447.981 114.5,447C 86.9144,441.416 69.7477,424.916 63,397.5C 61.5529,347.52 61.0529,297.52 61.5,247.5 Z"/></g>
<g><path style="opacity:1" fill="#fcfefd" d="M 193.5,199.5 C 241.508,197.906 277.008,217.906 300,259.5C 315.275,296.154 312.609,331.154 292,364.5C 262.954,403.004 224.12,417.504 175.5,408C 122.684,389.172 96.5177,351.672 97,295.5C 103.379,248.756 129.212,217.923 174.5,203C 181.026,202.126 187.359,200.959 193.5,199.5 Z"/></g>
<g><path style="opacity:1" fill="#95bedd" d="M 203.5,217.5 C 233.81,218.736 257.977,231.402 276,255.5C 289.551,275.926 293.885,298.26 289,322.5C 280.541,354.909 261.208,376.909 231,388.5C 230.586,388.043 230.086,387.709 229.5,387.5C 194.144,397.571 163.311,389.238 137,362.5C 111.1,328.233 108.766,292.9 130,256.5C 147.796,232.005 172.296,219.005 203.5,217.5 Z"/></g>
<g><path style="opacity:0.063" fill="#b2d2e1" d="M 66.5,202.5 C 63.6586,217.491 61.9919,232.491 61.5,247.5C 61.3336,238.494 61.5002,229.494 62,220.5C 62.2755,214.064 63.7755,208.064 66.5,202.5 Z"/></g>
<g><path style="opacity:1" fill="#fad5e0" d="M 183.5,255.5 C 204.68,255.409 226.013,255.575 247.5,256C 250.191,255.946 252.024,257.113 253,259.5C 253.958,282.55 253.625,305.55 252,328.5C 250.194,333.446 247.861,338.112 245,342.5C 233.797,352.337 222.964,362.504 212.5,373C 207.534,375.819 202.867,375.152 198.5,371C 190.863,365.373 183.196,359.706 175.5,354C 170.886,352.454 166.219,351.121 161.5,350C 175.159,334.702 189.325,320.202 204,306.5C 205.947,307.044 206.78,308.377 206.5,310.5C 206.327,312.038 205.994,313.538 205.5,315C 206.297,324.799 206.797,334.632 207,344.5C 207.561,345.022 208.228,345.355 209,345.5C 217.895,339.188 225.561,331.521 232,322.5C 232.833,308.155 232.666,293.822 231.5,279.5C 224.714,278.851 217.88,278.518 211,278.5C 203.426,278.385 195.926,278.885 188.5,280C 178.114,289.723 167.781,299.389 157.5,309C 155.045,310.864 152.878,310.698 151,308.5C 145.57,280.446 156.403,262.78 183.5,255.5 Z"/></g>
</svg>
